<svg version="1.1" xmlns="http://www.w3.org/2000/svg" xmlns:xlink="http://www.w3.org/1999/xlink" width="360.29882" height="75.28133" viewBox="0,0,360.29882,75.28133"><g transform="translate(-107.15017,-132.59958)"><g data-paper-data="{&quot;isPaintingLayer&quot;:true}" fill-rule="nonzero" stroke-linecap="butt" stroke-linejoin="miter" stroke-miterlimit="10" stroke-dasharray="" stroke-dashoffset="0" style="mix-blend-mode: normal"><path d="M182.1198,186.68994c-0.00572,1.25329 -0.02256,2.61974 -0.02256,2.89797c0,7.92505 -6.47068,13.2001 -16.25758,15.9704c-5.41352,1.53236 -11.8417,2.29837 -18.75068,2.3226h-0.02399h-0.02364c-19.39948,-0.06804 -35.01365,-5.98428 -35.01365,-18.293c0,-0.27321 -0.01612,-1.64539 -0.02148,-2.89797l11.65451,1.12368l0.40141,5.75187c0.04833,0.69325 0.5998,1.24506 1.29304,1.29483l13.80586,0.98509c0.72762,0.05335 1.3736,-0.46623 1.47995,-1.18884l0.79171,-5.36909h11.2649l0.79171,5.36909c0.10133,0.68894 0.69325,1.19241 1.37933,1.19241c0.03331,0 0.06696,-0.00108 0.10062,-0.00358l13.80586,-0.98509c0.69324,-0.04976 1.24469,-0.60158 1.29304,-1.29483l0.40141,-5.75188z" fill="#747474" stroke="#000000" stroke-width="0"/><path d="M111.97963,162.75188c-1.71664,-2.19147 -3.30653,-4.50074 -4.82946,-6.96434c2.02424,-3.44475 4.50217,-6.52319 7.15235,-9.3753c2.45859,1.23717 4.84523,2.6387 7.10006,4.13013c1.12867,-1.12152 2.40165,-2.03892 3.64814,-2.99786c1.22681,-0.98509 2.60719,-1.70734 3.92063,-2.54883c-0.39139,-2.90655 -0.58438,-5.76799 -0.66173,-8.7544c3.38208,-1.70232 6.98941,-2.831 10.63611,-3.6417c1.45881,2.44821 2.79018,5.09944 3.94964,7.69125c1.37611,-0.22989 2.75724,-0.31512 4.14374,-0.33159v-0.00213c0.0086,0 0.01754,0.00213 0.02614,0.00213c0.00824,0 0.01719,-0.00213 0.02685,-0.00213v0.00213c1.38398,0.01647 2.76619,0.1017 4.14195,0.33159c1.16019,-2.5918 2.49225,-5.24305 3.94893,-7.69125c3.6485,0.81069 7.25546,1.93938 10.6379,3.6417c-0.07771,2.9864 -0.27071,5.84784 -0.66101,8.7544c1.31094,0.84149 2.69312,1.56375 3.91956,2.54883c1.24828,0.95894 2.51912,1.87636 3.64743,2.99786c2.25484,-1.4914 4.64218,-2.89296 7.10006,-4.13013c2.65017,2.85213 5.12954,5.93058 7.15306,9.3753c-1.52364,2.4636 -3.11245,4.77288 -4.82946,6.96434h-0.04798v19.45282l-0.00537,0.00178v1.68693c-0.03868,0.00036 -0.07698,0.00178 -0.11529,0.00537l-12.95614,1.2497c-0.67891,0.06588 -1.21067,0.61198 -1.2583,1.29232l-0.39926,5.72144l-11.30644,0.80676l-0.77882,-5.28065c-0.10098,-0.68465 -0.68823,-1.19206 -1.3804,-1.19206h-13.67445c-0.69252,0 -1.27978,0.5074 -1.38077,1.19206l-0.77882,5.28065l-11.30608,-0.80676l-0.39962,-5.72144c-0.04727,-0.68036 -0.57939,-1.22681 -1.2583,-1.29232l-12.96115,-1.2497c-0.03831,-0.00358 -0.07698,-0.00501 -0.11566,-0.00537v-1.96659v-2.16103v-17.01393z" fill="#747474" stroke="#000000" stroke-width="0"/><path d="M182.11523,186.69005l-10.97342,1.77823l-0.35917,5.14706c-0.0727,1.04202 -0.91382,1.88458 -1.9562,1.95942l-13.80621,0.98473c-0.04976,0.00358 -0.10061,0.00537 -0.15146,0.00537c-1.03881,0 -1.9365,-0.7756 -2.08798,-1.80367l-0.70147,-4.75747h-10.02809l-0.70147,4.75747c-0.15183,1.02843 -1.04846,1.80402 -2.08582,1.80402c-0.05156,0 -0.10313,-0.00215 -0.1554,-0.00572l-13.80443,-0.98473c-1.04274,-0.07483 -1.88351,-0.9174 -1.9562,-1.95942l-0.35952,-5.14706l-10.97808,-1.77036l0.01754,-2.80379c0.06695,0 0.11602,-0.71472 0.18297,-0.70829l12.96258,1.2497c1.03093,0.09954 1.83159,0.92171 1.90392,1.95513l0.35594,5.10159l10.02343,0.7151l0.68214,-4.62356c0.15183,-1.02843 1.04989,-1.80367 2.08904,-1.80367h13.67445c1.03951,0 1.93758,0.77525 2.08941,1.80367l0.68179,4.62356l10.02343,-0.7151l0.35594,-5.10159c0.07234,-1.03307 0.873,-1.85523 1.90391,-1.95477l12.95614,-1.25007c0.06804,-0.00644 0.18442,0.70756 0.18442,0.70756z" fill="#ffffff" stroke="#000000" stroke-width="0"/><path d="M136.50266,171.33394c0,4.3156 -3.49667,7.81158 -7.81086,7.81158c-4.31203,0 -7.80978,-3.49597 -7.80978,-7.81158c0,-4.31274 3.49775,-7.8069 7.80978,-7.8069c4.31419,0 7.81086,3.49416 7.81086,7.8069" fill="#ffffff" stroke="#000000" stroke-width="0"/><path d="M157.62763,171.33394c0,-4.31274 3.49669,-7.8069 7.81158,-7.8069c4.31167,0 7.80906,3.49416 7.80906,7.8069c0,4.3156 -3.49739,7.81158 -7.80906,7.81158c-4.31489,0 -7.81158,-3.49597 -7.81158,-7.81158" fill="#ffffff" stroke="#000000" stroke-width="0"/><text transform="translate(201.63754,184.66346) scale(1.05879,1.05879)" font-size="40" xml:space="preserve" fill="#747474" fill-rule="nonzero" stroke="none" stroke-width="1" stroke-linecap="butt" stroke-linejoin="miter" stroke-miterlimit="10" stroke-dasharray="" stroke-dashoffset="0" font-family="Arial Black" font-weight="normal" text-anchor="start" style="mix-blend-mode: normal"><tspan x="0" dy="0">GodotMage</tspan></text></g></g></svg>